# xmcd
#
# Track frame offsets:
#	182
#	13345
#	27700
#	40907
#	57737
#	73662
#	91957
#	108370
#	126932
#	141107
#	158232
#	173095
#	184657
#	199307
#	217582
#	242982
#	258257
#	269795
#
# Disc length: 3808 seconds
#
# Revision: 1
# Processed by: cddbd v1.5.2PL0 Copyright (c) Steve Scherf et al.
# Submitted via: EasyCDDAExtractor 10.5.1.1
#
DISCID=140ede12
DTITLE=Various Artist - Music City USA '98
DYEAR=1900
DGENRE=Country
TTITLE0=Sherrié Austin - Tenderly
TTITLE1=Brooks and Dunn - He´s Got You
TTITLE2=Pam Tillis - I Said A Prayer
TTITLE3=Vince Gill - Don´t Let Our Love Start Slippin´ Away
TTITLE4=Lee Ann Womack - The Fool
TTITLE5=Blackhawk - That´s Just About Right
TTITLE6=Reba McEntire - How Was I To Know
TTITLE7=Diamond Rio - How Your Love Makes Me Feel
TTITLE8=Jill Morris - Be Young, Be Foolish, Be Happy
TTITLE9=Alan Jackson - Livin´ On Love
TTITLE10=Michelle Wright - Nobody´s Girl
TTITLE11=BR5-49 - Wild One
TTITLE12=Confederate Railroad - Trashy Woman
TTITLE13=George Strait - One Step At A Time
TTITLE14=Prairie Oister - One Way Track
TTITLE15=Charlie Major - (I Do It) For The Money
TTITLE16=Junior Brown - Highway Patrol
TTITLE17=Texas Tornados - A Little Bit Is Better Than Nada (Album Version)
EXTD=
EXTT0=
EXTT1=
EXTT2=
EXTT3=
EXTT4=
EXTT5=
EXTT6=
EXTT7=
EXTT8=
EXTT9=
EXTT10=
EXTT11=
EXTT12=
EXTT13=
EXTT14=
EXTT15=
EXTT16=
EXTT17=
PLAYORDER=
